<svg width="21" height="20" viewBox="0 0 21 20" fill="none" xmlns="http://www.w3.org/2000/svg">
<path d="M10.5 0C4.975 0 0.500001 4.475 0.500001 10C0.498867 12.0993 1.15882 14.1456 2.38622 15.8487C3.61362 17.5517 5.34615 18.8251 7.338 19.488C7.838 19.575 8.025 19.275 8.025 19.012C8.025 18.775 8.012 17.988 8.012 17.15C5.5 17.613 4.85 16.538 4.65 15.975C4.537 15.687 4.05 14.8 3.625 14.562C3.275 14.375 2.775 13.912 3.612 13.9C4.4 13.887 4.962 14.625 5.15 14.925C6.05 16.437 7.488 16.012 8.062 15.75C8.15 15.1 8.412 14.663 8.7 14.413C6.475 14.163 4.15 13.3 4.15 9.475C4.15 8.387 4.537 7.488 5.175 6.787C5.075 6.537 4.725 5.512 5.275 4.137C5.275 4.137 6.112 3.875 8.025 5.163C8.83906 4.93706 9.68017 4.82334 10.525 4.825C11.375 4.825 12.225 4.937 13.025 5.162C14.937 3.862 15.775 4.138 15.775 4.138C16.325 5.513 15.975 6.538 15.875 6.788C16.512 7.488 16.9 8.375 16.9 9.475C16.9 13.313 14.563 14.163 12.338 14.413C12.7 14.725 13.013 15.325 13.013 16.263C13.013 17.6 13 18.675 13 19.013C13 19.275 13.188 19.587 13.688 19.487C15.673 18.8168 17.3979 17.541 18.6199 15.8392C19.8419 14.1373 20.4994 12.0951 20.5 10C20.5 4.475 16.025 0 10.5 0Z" fill="white"/>
</svg>
