<svg width="29" height="28" viewBox="0 0 19 18" fill="none" xmlns="http://www.w3.org/2000/svg">
<path d="M15.835 15.339H13.17V11.162C13.17 10.166 13.15 8.884 11.78 8.884C10.391 8.884 10.179 9.968 10.179 11.089V15.339H7.513V6.75H10.073V7.92H10.108C10.466 7.246 11.336 6.533 12.636 6.533C15.336 6.533 15.836 8.311 15.836 10.624V15.339H15.835ZM4.503 5.575C4.29956 5.57526 4.09806 5.53537 3.91006 5.45761C3.72207 5.37984 3.55127 5.26574 3.40746 5.12184C3.26365 4.97793 3.14965 4.80706 3.07201 4.61901C2.99437 4.43097 2.9546 4.22944 2.955 4.026C2.9552 3.71983 3.04618 3.4206 3.21644 3.16615C3.3867 2.91169 3.62859 2.71343 3.91153 2.59645C4.19447 2.47947 4.50574 2.44902 4.80598 2.50894C5.10622 2.56886 5.38196 2.71647 5.59831 2.93311C5.81466 3.14974 5.96191 3.42566 6.02145 3.72598C6.08099 4.0263 6.05013 4.33753 5.93278 4.62032C5.81544 4.9031 5.61687 5.14474 5.36219 5.31467C5.10751 5.4846 4.80917 5.5752 4.503 5.575ZM5.839 15.339H3.166V6.75H5.84V15.339H5.839ZM17.17 0H1.829C1.093 0 0.5 0.58 0.5 1.297V16.703C0.5 17.42 1.094 18 1.828 18H17.166C17.9 18 18.5 17.42 18.5 16.703V1.297C18.5 0.58 17.9 0 17.166 0H17.17Z" fill="white"/>
</svg>
